<svg width="71" height="69" viewBox="0 0 71 69" fill="none" xmlns="http://www.w3.org/2000/svg">
<path d="M25.3002 0.655762C30.3043 0.655762 34.3388 2.17322 37.4039 5.20824C40.4688 8.24326 42.0014 12.3621 42.0014 17.565V48.0387C42.0014 48.3484 41.8762 48.6271 41.6261 48.8749C41.4384 49.0611 41.1882 49.154 40.8755 49.154H29.8977C29.5849 49.154 29.3034 49.0611 29.0533 48.8749C28.8656 48.6271 28.7718 48.3484 28.7718 48.0387V20.2593C28.7718 17.7817 28.0524 15.7688 26.6138 14.2203C25.2376 12.6718 23.3923 11.8976 21.078 11.8976C18.7635 11.8976 16.887 12.6718 15.4483 14.2203C14.0722 15.7688 13.3841 17.7817 13.3841 20.2593V48.0387C13.3841 48.3484 13.259 48.6271 13.0088 48.8749C12.8212 49.0611 12.5709 49.154 12.2582 49.154H1.28041C0.967652 49.154 0.686171 49.0611 0.435962 48.8749C0.248307 48.6271 0.15448 48.3484 0.15448 48.0387V2.51392C0.15448 2.20426 0.248307 1.95647 0.435962 1.77065C0.686171 1.52287 0.967652 1.39902 1.28041 1.39902H12.2582C12.5709 1.39902 12.8212 1.52287 13.0088 1.77065C13.259 1.95647 13.3841 2.20426 13.3841 2.51392V5.76569C13.3841 5.95151 13.4466 6.07535 13.5718 6.13732C13.6969 6.19929 13.7907 6.16826 13.8533 6.04441C16.4178 2.45195 20.2335 0.655762 25.3002 0.655762Z" fill="#32263E"/>
<path d="M57.3585 21.0955C57.3585 20.7858 57.4523 20.538 57.64 20.3522C57.8902 20.1044 58.1717 19.9806 58.4844 19.9806H69.4622C69.7749 19.9806 70.0251 20.1044 70.2128 20.3522C70.463 20.538 70.5881 20.7858 70.5881 21.0955V66.6207C70.5881 66.9301 70.463 67.2088 70.2128 67.4568C70.0251 67.6427 69.7749 67.7356 69.4622 67.7356H58.4844C58.1717 67.7356 57.8902 67.6427 57.64 67.4568C57.4523 67.2088 57.3585 66.9301 57.3585 66.6207V63.4618C57.3585 63.276 57.2959 63.1831 57.1708 63.1831C57.0458 63.1208 56.9206 63.1831 56.7955 63.3689C54.2934 66.7136 50.4153 68.3859 45.1609 68.3859C40.407 68.3859 36.4976 66.9607 33.4326 64.1122C30.3675 61.2627 28.835 57.2676 28.835 52.1271V21.0955C28.835 20.7858 28.9288 20.538 29.1165 20.3522C29.3667 20.1044 29.6482 19.9806 29.9609 19.9806H40.8449C41.1576 19.9806 41.4079 20.1044 41.5955 20.3522C41.8458 20.538 41.9708 20.7858 41.9708 21.0955V48.8749C41.9708 51.3522 42.6276 53.3655 43.9412 54.9143C45.3174 56.4621 47.1939 57.237 49.5708 57.237C51.6976 57.237 53.449 56.6173 54.8251 55.3788C56.2013 54.0781 57.0457 52.4058 57.3585 50.3618V21.0955Z" fill="#32263E"/>
</svg>
